<?xml version="1.0" encoding="utf-8"?>
<svg viewBox="0 0 512 512" xmlns="http://www.w3.org/2000/svg">
 <svg height="100%" id="emblematic-background" version="1.1" viewBox="0 0 512 512" width="100%" xmlns="http://www.w3.org/2000/svg">
  <defs>
   <linearGradient gradientUnits="userSpaceOnUse" id="background" x2="512" y1="512">
    <stop offset="0" stop-color="#051436"/>
    <stop offset=".75" stop-color="#001553"/>
    <stop offset="1" stop-color="#010a4e"/>
   </linearGradient>
  </defs>
  <rect fill="url(#background)" height="512" width="512"/>
 </svg>
 <svg height="63%" id="emblematic-icon" preserveAspectRatio="xMidYMid meet" viewBox="0 0 512 512" width="63%" x="94.72" xmlns="http://www.w3.org/2000/svg" y="94.72">
  <defs>
   <filter color-interpolation-filters="sRGB" id="emblematic-filter">
    <feFlood flood-color="rgb(1,8,40)" in="SourceGraphic" result="flood"/>
    <feGaussianBlur in="SourceGraphic" result="blur" stdDeviation="10"/>
    <feOffset dx="-4" dy="8" in="blur" result="offset"/>
    <feComposite in="flood" in2="offset" operator="in" result="comp1"/>
    <feComposite in="SourceGraphic" in2="comp1" result="comp2"/>
   </filter>
  </defs>
  <!--! Font Awesome Pro 6.5.2 by @fontawesome - https://fontawesome.com License - https://fontawesome.com/license (Commercial License) Copyright 2024 Fonticons, Inc. -->
  <path d="M256 512A256 256 0 1 0 256 0a256 256 0 1 0 0 512zM369 209L241 337c-9.4 9.4-24.6 9.4-33.9 0l-64-64c-9.4-9.4-9.4-24.6 0-33.9s24.6-9.4 33.9 0l47 47L335 175c9.4-9.4 24.6-9.4 33.9 0s9.4 24.6 0 33.9z" fill="#85c4ff" filter="url(#emblematic-filter)"/>
 </svg>
</svg>
